<?xml version="1.0" encoding="UTF-8"?>
<svg version="1.1" xmlns="http://www.w3.org/2000/svg" width="500" height="500">
<path d="M0 0 C6.93675594 -0.42588548 13.87474918 -0.63348969 20.82302189 -0.73359013 C24.34833468 -0.78715738 27.85964581 -0.8854981 31.3795929 -1.09184265 C53.979554 -2.37224302 53.979554 -2.37224302 60.68751526 3.42607117 C65.23183071 9.13708473 68.13902889 15.51925999 70.87663269 22.24565125 C72.49486507 26.11289956 74.52055387 29.62129436 76.69136047 33.19697571 C78.5623478 36.47604564 80.43017152 39.75670805 82.28901672 43.04267883 C82.89616516 44.1042218 83.5033136 45.16576477 84.12886047 46.25947571 C84.92211731 47.65637634 84.92211731 47.65637634 85.73139954 49.08149719 C86.93961825 51.32448563 86.93961825 51.32448563 89.11323547 52.20088196 C89.4767511 51.20508118 89.4767511 51.20508118 89.84761047 50.18916321 C91.43804507 46.43397042 93.36922636 42.94217925 95.36323547 39.38838196 C96.00337585 38.24248596 96.00337585 38.24248596 96.65644836 37.07344055 C100.55945951 30.12204192 104.54534106 23.21868044 108.55073547 16.32588196 C109.15369446 15.28585022 109.75665344 14.24581848 110.37788391 13.17427063 C110.94926086 12.19563049 111.52063782 11.21699036 112.10932922 10.20869446 C112.87007751 8.90376038 112.87007751 8.90376038 113.64619446 7.57246399 C114.37237976 6.39853088 114.37237976 6.39853088 115.11323547 5.20088196 C115.70521729 4.15990608 115.70521729 4.15990608 116.30915833 3.09790039 C118.89199381 0.38200405 120.74443673 0.61303458 124.44551086 0.477005 C125.75439774 0.42243637 127.06328461 0.36786774 128.41183472 0.31164551 C129.84478174 0.27564172 131.27780861 0.2427045 132.71089172 0.21260071 C133.79681516 0.18627532 133.79681516 0.18627532 134.90467644 0.15941811 C138.74161637 0.07013393 142.57799797 0.00786677 146.41572571 -0.03471375 C149.58005266 -0.07457021 152.73654055 -0.16474109 155.89814758 -0.30131531 C181.24009714 -1.37275949 181.24009714 -1.37275949 187.44902039 2.75297546 C191.04446939 6.63737694 192.82000717 11.07249439 194.39402771 16.06706238 C195.39783832 19.04527095 196.9515239 21.54813717 198.62495422 24.19697571 C199.68405781 26.01048014 200.74264725 27.82428493 201.80073547 29.63838196 C202.38540588 30.64078918 202.97007629 31.64319641 203.57246399 32.67597961 C209.82493572 43.40660667 216.02768965 54.16576942 222.22651672 64.92744446 C224.09291927 68.16563356 225.9619731 71.40227634 227.83198547 74.63838196 C234.64911124 86.43801146 241.43396803 98.25518629 248.18354797 110.09352112 C252.9252118 118.40728833 257.71808222 126.68966604 262.55073547 134.95088196 C263.68626222 136.90133871 264.82168278 138.85185728 265.95698547 140.80244446 C267.95324836 144.22928166 269.97387694 147.63924452 272.01948547 151.03681946 C272.86361203 152.46628466 273.70738959 153.89595604 274.55073547 155.32588196 C274.93479553 155.94688782 275.31885559 156.56789368 275.71455383 157.2077179 C278.14100873 161.37399382 278.24124047 163.58540163 277.11323547 168.20088196 C275.84492493 170.88789368 275.84492493 170.88789368 274.22651672 173.63056946 C273.32280334 175.1785321 273.32280334 175.1785321 272.40083313 176.75776672 C271.7490509 177.85274475 271.09726868 178.94772278 270.42573547 180.07588196 C269.41167292 181.80445913 268.39761632 183.53303984 267.38398743 185.26187134 C266.33508497 187.04758716 265.28195173 188.83075094 264.22798157 190.61347961 C262.14749237 194.13643493 260.09041004 197.67264375 258.03901672 201.21260071 C252.63465619 210.52802058 252.63465619 210.52802058 250.74604797 213.76728821 C250.26023254 214.60203674 249.77441711 215.43678528 249.27388 216.29682922 C248.11323547 218.20088196 248.11323547 218.20088196 247.11323547 219.20088196 C238.90757274 220.12800882 230.58314626 220.28730388 222.33163166 220.52650547 C218.50911153 220.64001832 214.70047682 220.79782869 210.88545227 221.06636047 C186.43881365 222.74284377 186.43881365 222.74284377 179.44166565 217.01329041 C174.8138913 211.35261793 171.98849154 204.97286878 169.33305359 198.20713806 C167.68861973 194.15441146 165.56881739 190.50415687 163.31636047 186.76728821 C162.63774876 185.57627398 161.96311912 184.38298007 161.29292297 183.18721008 C160.6561261 182.0573468 160.01932922 180.92748352 159.36323547 179.76338196 C158.85228333 178.85132996 158.85228333 178.85132996 158.33100891 177.92085266 C157.3309096 176.13774992 156.3242426 174.35850009 155.31636047 172.57978821 C154.74562805 171.56473206 154.17489563 170.5496759 153.58686829 169.50386047 C152.31994405 167.09075681 152.31994405 167.09075681 150.11323547 166.20088196 C149.84100159 166.91897034 149.5687677 167.63705872 149.2882843 168.37690735 C148.12416951 171.17460437 146.79217104 173.74138199 145.31245422 176.38447571 C144.47363708 177.88494446 144.47363708 177.88494446 143.61787415 179.41572571 C143.01821838 180.47920227 142.41856262 181.54267883 141.80073547 182.63838196 C141.18496643 183.73408508 140.56919739 184.82978821 139.93476868 185.95869446 C122.55813343 216.755984 122.55813343 216.755984 120.11323547 219.20088196 C110.41948521 220.41402462 100.61531362 220.43052655 90.86250305 220.26728821 C84.94482207 220.17067958 79.18989671 220.23517286 73.29682922 220.81806946 C67.0237251 221.29104529 61.00470485 221.72485474 55.11323547 219.20088196 C49.09434299 213.76769818 46.04157217 206.03467939 42.7816925 198.76728821 C40.15800695 193.15903555 37.05951907 187.84632468 33.93605042 182.50505066 C32.93881465 180.78592897 31.96698146 179.05215278 30.99555969 177.3183136 C30.40146301 176.27022522 29.80736633 175.22213684 29.19526672 174.14228821 C28.67166565 173.21102112 28.14806458 172.27975403 27.6085968 171.32026672 C26.21950709 168.90694375 26.21950709 168.90694375 23.11323547 168.20088196 C22.55378235 169.22181946 21.99432922 170.24275696 21.41792297 171.29463196 C15.77204198 181.54929752 9.95364264 191.69304894 4.02485657 201.78681946 C3.45976379 202.74974915 2.89467102 203.71267883 2.31245422 204.70478821 C1.81576233 205.54856018 1.31907043 206.39233215 0.80732727 207.26167297 C-1.47108418 211.21466266 -3.67097182 215.21245509 -5.88676453 219.20088196 C-27.66676453 219.20088196 -49.44676453 219.20088196 -71.88676453 219.20088196 C-76.83676453 210.62088196 -81.78676453 202.04088196 -86.88676453 193.20088196 C-88.4413739 190.53252258 -89.99598328 187.86416321 -91.59770203 185.11494446 C-92.22160828 184.04373352 -92.84551453 182.97252258 -93.48832703 181.86885071 C-94.72187166 179.752262 -95.95912774 177.63783374 -97.19926453 175.52510071 C-98.10805359 173.96082336 -98.10805359 173.96082336 -99.03520203 172.36494446 C-99.56291199 171.46211731 -100.09062195 170.55929016 -100.63432312 169.62910461 C-101.78519779 167.39779868 -102.59551291 165.68789524 -102.88676453 163.20088196 C-101.63998865 160.48175218 -100.33616126 158.01791246 -98.82426453 155.45088196 C-98.38106873 154.67663879 -97.93787292 153.90239563 -97.48124695 153.10469055 C-95.96305265 150.46216701 -94.4256246 147.83141988 -92.88676453 145.20088196 C-91.70663012 143.16728707 -90.52695792 141.1334239 -89.34770203 139.09931946 C-83.05283077 128.26304635 -83.05283077 128.26304635 -80.65542603 124.30711365 C-78.84223442 121.25063304 -78.84223442 121.25063304 -77.51716614 118.05943298 C-73.67946016 109.85582011 -73.67946016 109.85582011 -68.90640259 108.11204529 C-65.17512181 107.71282568 -61.61027913 107.69450526 -57.85942078 107.81025696 C-56.50178014 107.81020055 -55.14413036 107.80484693 -53.78652954 107.79444885 C-50.23209943 107.78132307 -46.68237769 107.83960907 -43.12882996 107.91334534 C-39.49550254 107.97591874 -35.8623329 107.97020101 -32.2285614 107.97041321 C-25.11332883 107.9808029 -18.00082808 108.06671664 -10.88676453 108.20088196 C-10.88676453 104.42274244 -12.07167789 102.78423665 -13.96488953 99.52119446 C-14.28798599 98.9603717 -14.61108246 98.39954895 -14.94396973 97.82173157 C-15.6404392 96.61463807 -16.33983156 95.40922729 -17.04182434 94.20533752 C-18.14111424 92.31841572 -19.23081076 90.42624863 -20.31816101 88.53242493 C-23.7167648 82.62209244 -27.15304856 76.73747803 -30.65629578 70.88838196 C-31.21607117 69.94204895 -31.77584656 68.99571594 -32.35258484 68.02070618 C-33.3935767 66.26375387 -34.4483304 64.5148611 -35.51860046 62.77558899 C-35.98169617 61.99038879 -36.44479187 61.2051886 -36.92192078 60.39619446 C-37.32805603 59.72604309 -37.73419128 59.05589172 -38.15263367 58.36543274 C-39.53521285 54.28896217 -38.29091756 51.0482493 -36.49491882 47.28266907 C-35.90622009 46.27470276 -35.31752136 45.26673645 -34.71098328 44.22822571 C-33.72472961 42.52146667 -33.72472961 42.52146667 -32.71855164 40.78022766 C-32.00441735 39.5659095 -31.2896419 38.35196821 -30.57426453 37.13838196 C-29.47722961 35.26239352 -28.38216384 33.38526772 -27.28753662 31.50787354 C-26.55081857 30.24457189 -25.81297175 28.98192784 -25.07400513 27.71994019 C-22.76570399 23.76379415 -20.55389161 19.76879026 -18.40238953 15.72431946 C-17.87814392 14.75373596 -17.35389832 13.78315247 -16.81376648 12.78315735 C-15.8426758 10.97738391 -14.88969708 9.16171673 -13.95780945 7.33540344 C-13.52057556 6.53433167 -13.08334167 5.73325989 -12.63285828 4.90791321 C-12.08649719 3.86341003 -12.08649719 3.86341003 -11.52909851 2.79780579 C-8.44178786 -0.20414144 -4.08940374 0.28457029 0 0 Z " fill="#F9D747" transform="translate(161.8867645263672,144.7991180419922)"/>
<path d="M0 0 C3.97141955 -0.07730945 7.93603661 -0.18663164 11.90389347 -0.37446404 C37.41032365 -1.55158098 37.41032365 -1.55158098 43.57109928 2.50532722 C47.17509294 6.38685968 48.94368468 10.82676157 50.51165104 15.82609749 C51.5122277 18.8072633 53.06559416 21.3091994 54.74056339 23.95903206 C55.79966698 25.77253649 56.85825642 27.58634128 57.91634464 29.40043831 C58.79335026 30.90404915 58.79335026 30.90404915 59.68807316 32.43803596 C65.94054489 43.16866302 72.14329882 53.92782577 78.34212589 64.68950081 C80.20852844 67.92768991 82.07758227 71.16433269 83.94759464 74.40043831 C90.7647204 86.20006781 97.5495772 98.01724265 104.29915714 109.85557747 C109.04082097 118.16934468 113.83369139 126.45172239 118.66634464 134.71293831 C119.80187138 136.66339506 120.93729195 138.61391363 122.07259464 140.56450081 C124.06885753 143.99133801 126.08948611 147.40130087 128.13509464 150.79887581 C128.9792212 152.22834101 129.82299876 153.65801239 130.66634464 155.08793831 C131.24243473 156.0194471 131.24243473 156.0194471 131.830163 156.96977425 C134.2566179 161.13605018 134.35684964 163.34745798 133.22884464 167.96293831 C131.9605341 170.64995003 131.9605341 170.64995003 130.34212589 173.39262581 C129.43841251 174.94058846 129.43841251 174.94058846 128.5164423 176.51982307 C127.86466007 177.6148011 127.21287785 178.70977913 126.54134464 179.83793831 C125.52728209 181.56651548 124.51322549 183.29509619 123.4995966 185.02392769 C122.45069414 186.80964351 121.3975609 188.59280729 120.34359074 190.37553596 C118.26310154 193.89849128 116.20601921 197.4347001 114.15462589 200.97465706 C108.75026536 210.29007694 108.75026536 210.29007694 106.86165714 213.52934456 C106.132934 214.78146736 106.132934 214.78146736 105.38948917 216.05888557 C104.22884464 217.96293831 104.22884464 217.96293831 103.22884464 218.96293831 C95.02318191 219.89006517 86.69875543 220.04936023 78.44724083 220.28856182 C74.6247207 220.40207467 70.81608599 220.55988504 67.00106144 220.82841682 C42.53830645 222.50614364 42.53830645 222.50614364 35.55223942 216.76225471 C30.92696661 211.08766609 28.09176549 204.7020222 25.43248844 197.92714119 C23.84991346 194.02974787 21.81306902 190.55467895 19.60775089 186.98637581 C18.33462187 184.77080063 17.0624378 182.5546821 15.79134464 180.33793831 C15.15003605 179.2280555 14.50872746 178.11817268 13.84798527 176.97465706 C9.90829327 170.10115187 6.27990247 163.13954135 2.77645206 156.03911018 C1.03404267 152.57573137 -0.84687787 149.31506796 -2.89615536 146.02543831 C-6.82140862 139.63097627 -10.53443275 133.129508 -14.20865536 126.58793831 C-18.34229587 119.23699911 -22.52261578 111.92185733 -26.82169247 104.66655159 C-31.35145251 97.0105427 -35.78992314 89.30172898 -40.20596981 81.57963753 C-43.06720898 76.58759472 -45.94789913 71.62626641 -49.02506161 66.76371956 C-49.50459286 65.99479378 -49.98412411 65.225868 -50.47818661 64.43364143 C-51.35103724 63.04387205 -52.24176186 61.66508968 -53.15396786 60.30082893 C-55.09155673 57.19083458 -55.81622145 55.3724519 -55.41178036 51.69731331 C-53.41433908 46.46598905 -50.32974132 41.68403861 -47.45865536 36.90043831 C-46.84288631 35.86072884 -46.22711727 34.82101936 -45.59268856 33.74980354 C-44.30637907 31.57906404 -43.01686087 29.41022298 -41.72428036 27.24321175 C-39.80113871 24.01329536 -37.89297024 20.77503027 -35.98990536 17.53325081 C-34.81299749 15.53054352 -33.63592108 13.52793526 -32.45865536 11.52543831 C-31.90202206 10.57854134 -31.34538876 9.63164436 -30.77188778 8.65605354 C-30.25988827 7.78923958 -29.74788876 6.92242561 -29.22037411 6.02934456 C-28.77008846 5.26565559 -28.31980282 4.50196663 -27.85587215 3.71513557 C-24.08392181 -2.37788436 -7.05167583 0.13464626 0 0 Z " fill="#F55589" transform="translate(305.77115535736084,145.03706169128418)"/>
<path d="M0 0 C2.73343104 0.00190457 5.41516919 0.06612679 8.14086914 0.19042969 C9.58810866 0.21283963 11.03543986 0.22990783 12.48280334 0.24188232 C16.27470663 0.28749366 20.06100545 0.4051335 23.85070801 0.53833008 C27.72465163 0.66157066 31.5995106 0.71599246 35.47485352 0.77636719 C43.06528726 0.90468949 50.65111839 1.10918864 58.23852539 1.36230469 C58.7812207 2.31927246 59.32391602 3.27624023 59.88305664 4.26220703 C60.60564022 5.53259342 61.32830053 6.80293617 62.05102539 8.07324219 C62.40745117 8.70222412 62.76387695 9.33120605 63.13110352 9.97924805 C65.07166422 13.38635635 67.07939402 16.71226122 69.23852539 19.98730469 C71.23852539 23.36230469 71.23852539 23.36230469 71.23852539 27.36230469 C71.89852539 27.36230469 72.55852539 27.36230469 73.23852539 27.36230469 C74.91747426 29.93810214 76.47226652 32.50488887 77.98852539 35.17480469 C78.43156006 35.95146484 78.87459473 36.728125 79.33105469 37.52832031 C80.22007254 39.08851184 81.10706035 40.64986198 81.99194336 42.21240234 C83.05561756 44.04685495 84.18916871 45.84049309 85.33618164 47.62402344 C85.90208008 48.52765625 86.46797852 49.43128906 87.05102539 50.36230469 C87.5524707 51.12542969 88.05391602 51.88855469 88.57055664 52.67480469 C90.60221287 60.84895372 83.25831903 69.95667404 79.30102539 76.61230469 C72.52372004 88.14752536 65.87802115 99.74318711 59.23852539 111.36230469 C37.45852539 111.36230469 15.67852539 111.36230469 -6.76147461 111.36230469 C-11.71147461 102.78230469 -16.66147461 94.20230469 -21.76147461 85.36230469 C-23.31608398 82.69394531 -24.87069336 80.02558594 -26.47241211 77.27636719 C-27.40827148 75.66955078 -27.40827148 75.66955078 -28.36303711 74.03027344 C-29.59658175 71.91368473 -30.83383782 69.79925647 -32.07397461 67.68652344 C-32.67983398 66.64367187 -33.28569336 65.60082031 -33.90991211 64.52636719 C-34.43762207 63.62354004 -34.96533203 62.72071289 -35.5090332 61.79052734 C-36.65990787 59.55922141 -37.47022299 57.84931797 -37.76147461 55.36230469 C-36.51469874 52.64317491 -35.21087134 50.17933519 -33.69897461 47.61230469 C-33.25577881 46.83806152 -32.81258301 46.06381836 -32.35595703 45.26611328 C-30.83776273 42.62358974 -29.30033468 39.99284261 -27.76147461 37.36230469 C-26.5813402 35.3287098 -25.40166801 33.29484663 -24.22241211 31.26074219 C-17.88672137 20.35420059 -17.88672137 20.35420059 -15.52671814 16.46939087 C-13.71277357 13.41453463 -13.71277357 13.41453463 -12.42263794 10.21316528 C-9.4431945 3.72616482 -7.36031304 0.63392924 0 0 Z " fill="#5DAEF6" transform="translate(96.761474609375,252.6376953125)"/>
<path d="M0 0 C1.32 0 2.64 0 4 0 C4.37125 0.94875 4.7425 1.8975 5.125 2.875 C7.24629944 7.81793218 9.84878646 12.63745646 13 17 C13.66 17 14.32 17 15 17 C15 19.31 15 21.62 15 24 C35.79 24 56.58 24 78 24 C78 23.34 78 22.68 78 22 C78.66 22 79.32 22 80 22 C79.979375 20.88625 79.95875 19.7725 79.9375 18.625 C80 15 80 15 81 13 C82.32 13.33 83.64 13.66 85 14 C84.4025696 15.69271945 83.71573527 17.35380887 83 19 C82.566875 20.0725 82.13375 21.145 81.6875 22.25 C78.48015992 25.53192939 77.56695876 25.41385089 73.12890625 25.6640625 C71.37767456 25.76364258 71.37767456 25.76364258 69.59106445 25.86523438 C62.97289883 26.11360119 56.37121413 26.17724154 49.74926758 26.06640625 C43.83158659 25.96979762 38.07666123 26.03429091 32.18359375 26.6171875 C19.54740545 27.54542275 19.54740545 27.54542275 14 25 C7.33679056 18.48083111 3.32281075 9.60515759 0 1 C0 0.67 0 0.34 0 0 Z " fill="#F4E087" transform="translate(203,339)"/>
<path d="M0 0 C0.66282234 0.00570889 1.32564468 0.01141777 2.00855255 0.01729965 C5.50694415 0.0486642 9.00516797 0.0875052 12.50341797 0.13183594 C16.11373986 0.17585055 19.72362553 0.19144746 23.33417892 0.20106697 C26.1173915 0.21391339 28.90002723 0.24858282 31.68296051 0.28918076 C33.66097565 0.31219144 35.639222 0.31130266 37.61737061 0.31008911 C38.81581604 0.3329599 40.01426147 0.35583069 41.24902344 0.37939453 C42.30490662 0.38907257 43.36078979 0.39875061 44.44866943 0.40872192 C47.078125 1.0546875 47.078125 1.0546875 48.94244385 3.47189331 C50.078125 6.0546875 50.078125 6.0546875 50.078125 8.0546875 C48.758125 7.7246875 47.438125 7.3946875 46.078125 7.0546875 C46.078125 5.4046875 46.078125 3.7546875 46.078125 2.0546875 C37.91551321 2.11587256 29.75327331 2.19295897 21.59102154 2.29040241 C17.80101837 2.33514774 14.01112372 2.3743943 10.22094727 2.40112305 C6.56381447 2.42711508 2.90709838 2.46748737 -0.74977684 2.51787376 C-2.1455791 2.53457045 -3.54145349 2.54606729 -4.93734169 2.55230141 C-6.89104212 2.56191113 -8.84461227 2.59165221 -10.7980957 2.62231445 C-11.9106221 2.63341751 -13.0231485 2.64452057 -14.16938782 2.65596008 C-17.25638759 3.10314525 -17.96932762 3.73951355 -19.921875 6.0546875 C-20.581875 6.0546875 -21.241875 6.0546875 -21.921875 6.0546875 C-21.674375 6.7765625 -21.426875 7.4984375 -21.171875 8.2421875 C-20.921875 11.0546875 -20.921875 11.0546875 -22.609375 13.8046875 C-24.86351366 15.99790349 -25.86230032 16.72687593 -28.921875 17.0546875 C-27.49963254 13.39558484 -25.97132176 9.8261686 -24.234375 6.3046875 C-23.77675781 5.34046875 -23.31914062 4.37625 -22.84765625 3.3828125 C-20.6449198 0.71986945 -19.59429166 0.57190368 -16.27153015 0.1998291 C-10.85263546 -0.13490387 -5.42643283 -0.04778925 0 0 Z " fill="#F5E18B" transform="translate(172.921875,144.9453125)"/>
<path d="M0 0 C0.99 0.33 1.98 0.66 3 1 C3 1.99 3 2.98 3 4 C4.98 4 6.96 4 9 4 C8.67 5.98 8.34 7.96 8 10 C8.66 10.33 9.32 10.66 10 11 C10.28875 11.804375 10.5775 12.60875 10.875 13.4375 C11.71741045 16.14890939 11.71741045 16.14890939 14.00390625 16.859375 C16 18 16 18 16.72265625 20.20703125 C16.83480469 21.06683594 16.94695312 21.92664063 17.0625 22.8125 C17.71070402 26.85939535 18.64976514 29.58147656 21 33 C21 33.66 21 34.32 21 35 C21.66 35 22.32 35 23 35 C23.33 36.98 23.66 38.96 24 41 C20 36.25 20 36.25 20 34 C19.34 34 18.68 34 18 34 C17.61199219 33.02675781 17.22398437 32.05351562 16.82421875 31.05078125 C14.88430489 26.52203467 12.36775797 22.39037081 9.8125 18.1875 C8.89834906 16.68341021 7.98798851 15.17700801 7.08203125 13.66796875 C6.68218018 13.01078857 6.2823291 12.3536084 5.87036133 11.67651367 C5 10 5 10 5 8 C3.68 7.67 2.36 7.34 1 7 C1 6.01 1 5.02 1 4 C0.6937566 2.66018514 0.36548445 1.32488113 0 0 Z " fill="#E6D97B" transform="translate(150,246)"/>
<path d="M0 0 C3 1 3 1 5 3 C5.33 4.32 5.66 5.64 6 7 C26.46 7.33 46.92 7.66 68 8 C68 7.01 68 6.02 68 5 C68.66 5 69.32 5 70 5 C70.103125 4.360625 70.20625 3.72125 70.3125 3.0625 C70.539375 2.381875 70.76625 1.70125 71 1 C71.99 0.67 72.98 0.34 74 0 C72.79310745 3.10343799 71.49403054 6.01193893 70 9 C48.22 9 26.44 9 4 9 C0 2 0 2 0 0 Z " fill="#6CAADF" transform="translate(86,355)"/>
<path d="M0 0 C1.125 1.6875 1.125 1.6875 2 4 C0.7 8.3 0.7 8.3 -1 10 C-3.00832828 10.12037224 -5.02090969 10.17024424 -7.03271484 10.19287109 C-8.32430511 10.20893402 -9.61589539 10.22499695 -10.94662476 10.24154663 C-12.36805569 10.25303191 -13.78949393 10.26364081 -15.2109375 10.2734375 C-15.92339252 10.27876118 -16.63584755 10.28408485 -17.36989212 10.28956985 C-21.14046403 10.31631616 -24.91100264 10.33568667 -28.68164062 10.35009766 C-32.58167312 10.36675448 -36.48086197 10.41153488 -40.38057518 10.4624691 C-43.3745524 10.4960825 -46.36832792 10.50766843 -49.36247635 10.51332474 C-50.80026323 10.52005322 -52.23803611 10.53531693 -53.67564011 10.55921555 C-55.68636135 10.59073551 -57.69753266 10.58791195 -59.70849609 10.58349609 C-61.42605606 10.59562637 -61.42605606 10.59562637 -63.17831421 10.60800171 C-66 10 -66 10 -67.89321899 7.58853149 C-69 5 -69 5 -69 3 C-68.01 3.33 -67.02 3.66 -66 4 C-65.67 5.65 -65.34 7.3 -65 9 C-44.21 9 -23.42 9 -2 9 C-2 8.01 -2 7.02 -2 6 C-1.34 6 -0.68 6 0 6 C0 5.01 0 4.02 0 3 C-0.66 3 -1.32 3 -2 3 C-2 2.34 -2 1.68 -2 1 C-1.34 0.67 -0.68 0.34 0 0 Z " fill="#E16C94" transform="translate(410,354)"/>
<path d="M0 0 C1.18802719 0.00222061 2.37605438 0.00444122 3.6000824 0.00672913 C4.58053528 0.00651009 4.58053528 0.00651009 5.58079529 0.00628662 C7.75058766 0.00698569 9.92029517 0.01477774 12.09007263 0.02259827 C13.59079949 0.02446247 15.09152696 0.02588636 16.59225464 0.02688599 C20.54934865 0.03071099 24.50640616 0.04054112 28.46348572 0.05158997 C32.49851488 0.06180446 36.53354991 0.06638369 40.56858826 0.07142639 C48.49113108 0.08216341 56.41364419 0.09923962 64.33616638 0.12025452 C64.83116638 1.60525452 64.83116638 1.60525452 65.33616638 3.12025452 C64.4540448 2.95871887 63.57192322 2.79718323 62.66307068 2.63075256 C56.84216828 1.80546117 50.97268061 1.95763733 45.10569763 1.95228577 C43.20372871 1.94729317 43.20372871 1.94729317 41.26333618 1.94219971 C38.5913693 1.93714997 35.91950429 1.93435676 33.24754333 1.93495178 C29.82787389 1.93505382 26.40841011 1.92134451 22.98878956 1.90417957 C19.7152666 1.89038776 16.44174571 1.89097144 13.16819763 1.88978577 C11.32908562 1.87900749 11.32908562 1.87900749 9.45281982 1.86801147 C8.31451218 1.8710881 7.17620453 1.87416473 6.00340271 1.87733459 C5.00303482 1.87590958 4.00266693 1.87448456 2.97198486 1.87301636 C0.27915553 2.1256021 -1.36133084 2.74247583 -3.66383362 4.12025452 C-3.66383362 4.78025452 -3.66383362 5.44025452 -3.66383362 6.12025452 C-4.32383362 6.12025452 -4.98383362 6.12025452 -5.66383362 6.12025452 C-3.36837414 0.15205987 -3.36837414 0.15205987 0 0 Z " fill="#EA83A4" transform="translate(282.66383361816406,145.87974548339844)"/>
<path d="M0 0 C1.06079773 0.00022659 2.12159546 0.00045319 3.21453857 0.00068665 C4.92253632 0.02391243 4.92253632 0.02391243 6.66503906 0.04760742 C7.83576965 0.05185226 9.00650024 0.05609711 10.21270752 0.06047058 C13.95226022 0.07726442 17.69127421 0.11491913 21.43066406 0.15307617 C23.96581253 0.16812204 26.50096944 0.18181062 29.03613281 0.1940918 C35.25116039 0.22717033 41.46587374 0.27737734 47.68066406 0.34057617 C47.68066406 0.67057617 47.68066406 1.00057617 47.68066406 1.34057617 C30.52066406 1.67057617 13.36066406 2.00057617 -4.31933594 2.34057617 C-4.31933594 3.33057617 -4.31933594 4.32057617 -4.31933594 5.34057617 C-5.63933594 5.34057617 -6.95933594 5.34057617 -8.31933594 5.34057617 C-8.64933594 6.33057617 -8.97933594 7.32057617 -9.31933594 8.34057617 C-11.88183594 9.52807617 -11.88183594 9.52807617 -14.31933594 10.34057617 C-13.65933594 8.69057617 -12.99933594 7.04057617 -12.31933594 5.34057617 C-11.32933594 5.34057617 -10.33933594 5.34057617 -9.31933594 5.34057617 C-9.31933594 4.68057617 -9.31933594 4.02057617 -9.31933594 3.34057617 C-6.28902393 0.42625365 -4.13558895 -0.02953992 0 0 Z " fill="#EA5C89" transform="translate(288.3193359375,146.659423828125)"/>
<path d="M0 0 C21.45 0 42.9 0 65 0 C65 0.66 65 1.32 65 2 C44.21 2 23.42 2 2 2 C1.34 3.32 0.68 4.64 0 6 C-0.99 6.33 -1.98 6.66 -3 7 C-1.125 2.25 -1.125 2.25 0 0 Z " fill="#6EAAE0" transform="translate(90,254)"/>
<path d="M0 0 C3.64252558 4.27378294 6.47092061 8.86703655 9.3125 13.6875 C9.77978516 14.45900391 10.24707031 15.23050781 10.72851562 16.02539062 C11.38303711 17.13237305 11.38303711 17.13237305 12.05078125 18.26171875 C12.44950439 18.93162842 12.84822754 19.60153809 13.2590332 20.29174805 C13.50355225 20.85547119 13.74807129 21.41919434 14 22 C13.67 22.66 13.34 23.32 13 24 C12.566875 23.525625 12.13375 23.05125 11.6875 22.5625 C9.97690387 20.76313043 9.97690387 20.76313043 7 20 C6.12109375 17.96875 6.12109375 17.96875 5.4375 15.5 C4.79615283 13.08504595 4.79615283 13.08504595 4 11 C3.34 10.67 2.68 10.34 2 10 C2 8.02 2 6.04 2 4 C1.34 4 0.68 4 0 4 C0 2.68 0 1.36 0 0 Z " fill="#EB84A7" transform="translate(389,220)"/>
<path d="M0 0 C2.61622844 3.00381784 4.82362669 6.15665829 6.875 9.5625 C7.32617188 10.30628906 7.77734375 11.05007813 8.2421875 11.81640625 C9 14 9 14 8.1328125 16.27734375 C7.57207031 17.13005859 7.57207031 17.13005859 7 18 C7 17.01 7 16.02 7 15 C6.34 15 5.68 15 5 15 C4.67 13.02 4.34 11.04 4 9 C2.35 9.66 0.7 10.32 -1 11 C-2.26264601 6.70700357 -1.62950412 4.12168689 0 0 Z " fill="#F0709A" transform="translate(412,260)"/>
<path d="M0 0 C2.43047521 2.23881844 4.04424529 4.52516288 5.69921875 7.37890625 C6.18583984 8.21744141 6.67246094 9.05597656 7.17382812 9.91992188 C7.67333984 10.79197266 8.17285156 11.66402344 8.6875 12.5625 C9.19861328 13.43841797 9.70972656 14.31433594 10.23632812 15.21679688 C14 21.74417974 14 21.74417974 14 24 C13.34 24 12.68 24 12 24 C11.67 24.66 11.34 25.32 11 26 C10.505 24.1746875 10.505 24.1746875 10 22.3125 C8.14393555 16.60849705 4.93179691 11.87552075 1.64453125 6.91796875 C0 4 0 4 0 0 Z " fill="#FEBF6D" transform="translate(300,287)"/>
<path d="M0 0 C0.66 0.33 1.32 0.66 2 1 C0.625 2.5 0.625 2.5 -1 4 C-1.66 4 -2.32 4 -3 4 C-2.7525 4.721875 -2.505 5.44375 -2.25 6.1875 C-2 9 -2 9 -3.6875 11.75 C-5.94163866 13.94321599 -6.94042532 14.67218843 -10 15 C-8.7933861 11.59954266 -7.24800441 8.43316646 -5.5625 5.25 C-4.94568359 4.08210937 -4.94568359 4.08210937 -4.31640625 2.890625 C-3 1 -3 1 0 0 Z " fill="#F5DF71" transform="translate(154,147)"/>
<path d="M0 0 C3.50297874 4.02193856 9 10.39433144 9 16 C7.35 15.67 5.7 15.34 4 15 C4 14.34 4 13.68 4 13 C3.34 12.67 2.68 12.34 2 12 C0.63827813 8.21743925 0.46294268 3.96808008 0 0 Z " fill="#FDC563" transform="translate(264,224)"/>
<path d="M0 0 C0.33 0 0.66 0 1 0 C0.25 6.75 0.25 6.75 -2 9 C-2.165 9.825 -2.33 10.65 -2.5 11.5 C-3 14 -3 14 -5 16 C-5.99 16 -6.98 16 -8 16 C-6.57250019 12.20950293 -4.83763458 8.72877544 -2.875 5.1875 C-2.33617187 4.21167969 -1.79734375 3.23585937 -1.2421875 2.23046875 C-0.83226562 1.49441406 -0.42234375 0.75835937 0 0 Z " fill="#F5E180" transform="translate(140,167)"/>
<path d="M0 0 C0.99 0.99 1.98 1.98 3 3 C1.43181728 8.452999 -0.03810217 12.76486783 -4 17 C-4 14.69 -4 12.38 -4 10 C-2.68 9.67 -1.36 9.34 0 9 C0 6.03 0 3.06 0 0 Z " fill="#83BBE4" transform="translate(183,305)"/>
<path d="M0 0 C0.99 0 1.98 0 3 0 C3.66666667 1.33333333 4.33333333 2.66666667 5 4 C5.5259375 4.9590625 5.5259375 4.9590625 6.0625 5.9375 C7.12203534 8.26847774 7.58026087 10.48156522 8 13 C8.66 13 9.32 13 10 13 C9.67 14.32 9.34 15.64 9 17 C7.49462965 14.54481265 5.99555574 12.0861548 4.5 9.625 C4.07074219 8.92632812 3.64148438 8.22765625 3.19921875 7.5078125 C0 2.2265625 0 2.2265625 0 0 Z " fill="#90C1EC" transform="translate(61,312)"/>
<path d="M0 0 C1.125 3.75 1.125 3.75 0 6 C-0.66 6 -1.32 6 -2 6 C-2 8.97 -2 11.94 -2 15 C-1.01 14.67 -0.02 14.34 1 14 C0.67 15.65 0.34 17.3 0 19 C-4.6327504 13.6200318 -4.6327504 13.6200318 -5 10 C-4.00390625 7.421875 -4.00390625 7.421875 -2.5625 4.75 C-2.08941406 3.85796875 -1.61632812 2.9659375 -1.12890625 2.046875 C-0.75636719 1.37140625 -0.38382813 0.6959375 0 0 Z " fill="#EA7490" transform="translate(255,188)"/>
<path d="M0 0 C2.64934011 2.64934011 4.32794935 4.89484856 6.25 8.0625 C7.06210938 9.37927734 7.06210938 9.37927734 7.890625 10.72265625 C8.25671875 11.47417969 8.6228125 12.22570312 9 13 C8.67 13.66 8.34 14.32 8 15 C6.62437146 13.71034824 5.29233607 12.37310707 4 11 C4 10.34 4 9.68 4 9 C3.01 9 2.02 9 1 9 C0.67 6.03 0.34 3.06 0 0 Z " fill="#77ADD3" transform="translate(171,284)"/>
<path d="M0 0 C0.48210937 0.433125 0.96421875 0.86625 1.4609375 1.3125 C2.09257812 1.869375 2.72421875 2.42625 3.375 3 C4.00148438 3.556875 4.62796875 4.11375 5.2734375 4.6875 C6.90389833 6.20172487 6.90389833 6.20172487 9 6 C8.25 11.75 8.25 11.75 6 14 C4.99515796 12.04414675 3.99626195 10.08523763 3 8.125 C2.1646875 6.48917969 2.1646875 6.48917969 1.3125 4.8203125 C0 2 0 2 0 0 Z " fill="#EC6588" transform="translate(309,300)"/>
<path d="M0 0 C2.63978826 3.18595135 5.10498388 6.30970546 7 10 C6.67 10.66 6.34 11.32 6 12 C4.68 11.67 3.36 11.34 2 11 C2 10.34 2 9.68 2 9 C1.34 9 0.68 9 0 9 C0 6.03 0 3.06 0 0 Z " fill="#EE7BA1" transform="translate(370,187)"/>
<path d="M0 0 C3.28465896 2.79196011 5.01321958 6.23196817 7 10 C7 10.66 7 11.32 7 12 C6.01 11.67 5.02 11.34 4 11 C4 10.01 4 9.02 4 8 C2.68 8 1.36 8 0 8 C0 5.36 0 2.72 0 0 Z " fill="#EB7EA3" transform="translate(425,283)"/>
<path d="M0 0 C0.66 0 1.32 0 2 0 C2 0.66 2 1.32 2 2 C2.66 2 3.32 2 4 2 C5.625 3.125 5.625 3.125 7 5 C7.1875 8.1875 7.1875 8.1875 7 11 C7.66 11 8.32 11 9 11 C8.67 12.32 8.34 13.64 8 15 C6.66407203 12.6889639 5.33115569 10.37628245 4 8.0625 C3.6184375 7.40314453 3.236875 6.74378906 2.84375 6.06445312 C0 1.11328125 0 1.11328125 0 0 Z " fill="#F4E38A" transform="translate(131,214)"/>
<path d="M0 0 C8 9.42857143 8 9.42857143 8 14 C7.34 14 6.68 14 6 14 C6 13.34 6 12.68 6 12 C5.01 11.67 4.02 11.34 3 11 C2.67 8.69 2.34 6.38 2 4 C1.34 4 0.68 4 0 4 C0 2.68 0 1.36 0 0 Z " fill="#E787A8" transform="translate(378,201)"/>
<path d="M0 0 C0.33 0 0.66 0 1 0 C1.44117322 4.49996683 1.52867608 6.34611117 -1.375 9.9375 C-4 12 -4 12 -6 12 C-4.43358249 7.69235185 -2.31663844 3.93828536 0 0 Z " fill="#F4E185" transform="translate(131,183)"/>
<path d="M0 0 C0.99 0.66 1.98 1.32 3 2 C2.34 2 1.68 2 1 2 C1 2.99 1 3.98 1 5 C-0.32 5 -1.64 5 -3 5 C-3.33 5.99 -3.66 6.98 -4 8 C-6.5625 9.1875 -6.5625 9.1875 -9 10 C-8.34 8.35 -7.68 6.7 -7 5 C-6.01 5 -5.02 5 -4 5 C-4 4.34 -4 3.68 -4 3 C-2 1.375 -2 1.375 0 0 Z " fill="#EE6492" transform="translate(283,147)"/>
<path d="M0 0 C3.22269618 3.79817765 5.74520378 7.57391854 8 12 C7.67 12.66 7.34 13.32 7 14 C6.34 13.34 5.68 12.68 5 12 C5 11.01 5 10.02 5 9 C3.35 9.33 1.7 9.66 0 10 C0 6.7 0 3.4 0 0 Z " fill="#74AFD0" transform="translate(158,261)"/>
<path d="M0 0 C3 1 3 1 5 3 C5.40047444 5.32275177 5.7397104 7.65739357 6 10 C6.66 10 7.32 10 8 10 C7.67 11.32 7.34 12.64 7 14 C5.82807953 12.04480616 4.6626071 10.0857461 3.5 8.125 C2.8503125 7.03445313 2.200625 5.94390625 1.53125 4.8203125 C0 2 0 2 0 0 Z " fill="#95C6EF" transform="translate(71,329)"/>
<path d="M0 0 C3 1 3 1 4.1875 2.875 C5 5 5 5 5 8 C5.66 8 6.32 8 7 8 C7 8.66 7 9.32 7 10 C7.66 10 8.32 10 9 10 C8.34 11.32 7.68 12.64 7 14 C5.82807953 12.04480616 4.6626071 10.0857461 3.5 8.125 C2.8503125 7.03445313 2.200625 5.94390625 1.53125 4.8203125 C0 2 0 2 0 0 Z " fill="#EA85A7" transform="translate(330,338)"/>
<path d="M0 0 C0.99 0 1.98 0 3 0 C1.43358249 4.30764815 -0.68336156 8.06171464 -3 12 C-3.33 12 -3.66 12 -4 12 C-4 10.35 -4 8.7 -4 7 C-3.34 7 -2.68 7 -2 7 C-2 5.68 -2 4.36 -2 3 C-1.34 3 -0.68 3 0 3 C0 2.01 0 1.02 0 0 Z " fill="#F4E17D" transform="translate(301,325)"/>
<path d="M0 0 C0.99 0.33 1.98 0.66 3 1 C1.74194623 5.50802601 0.09592835 8.4912812 -3 12 C-2.67 9.03 -2.34 6.06 -2 3 C-1.34 3 -0.68 3 0 3 C0 2.01 0 1.02 0 0 Z " fill="#EB7BA0" transform="translate(415,346)"/>
<path d="M0 0 C2.61500768 2.36595933 4.38999603 4.86049226 6 8 C5.67 8.66 5.34 9.32 5 10 C3.125 9.75 3.125 9.75 1 9 C-0.64872507 6.4835249 -1.37312706 3.92540704 -2 1 C-1.34 0.67 -0.68 0.34 0 0 Z " fill="#F07DA3" transform="translate(405,248)"/>
<path d="M0 0 C0.66 0 1.32 0 2 0 C2 0.66 2 1.32 2 2 C2.99 2 3.98 2 5 2 C5.53229326 3.26607607 6.05044544 4.53810412 6.5625 5.8125 C6.85253906 6.52019531 7.14257812 7.22789062 7.44140625 7.95703125 C8 10 8 10 7 13 C5.83072457 11.02237345 4.66464427 9.04285742 3.5 7.0625 C2.8503125 5.96035156 2.200625 4.85820312 1.53125 3.72265625 C0 1 0 1 0 0 Z " fill="#F6E591" transform="translate(140,230)"/>
<path d="M0 0 C3.33511388 2.9901021 5.21521119 5.89498574 7 10 C7 10.66 7 11.32 7 12 C6.01 11.67 5.02 11.34 4 11 C2.8125 7.9375 2.8125 7.9375 2 5 C1.34 5 0.68 5 0 5 C0 3.35 0 1.7 0 0 Z " fill="#FDBE6A" transform="translate(281,254)"/>
<path d="M0 0 C2.61724095 2.36797991 4.32861729 4.89600354 6 8 C6 8.66 6 9.32 6 10 C4.68 10 3.36 10 2 10 C2 9.34 2 8.68 2 8 C1.34 8 0.68 8 0 8 C0 5.36 0 2.72 0 0 Z " fill="#FCC467" transform="translate(258,214)"/>
<path d="M0 0 C0.99 0.33 1.98 0.66 3 1 C3 1.99 3 2.98 3 4 C4.98 4 6.96 4 9 4 C8.34 5.65 7.68 7.3 7 9 C6.67 8.34 6.34 7.68 6 7 C5.360625 6.9175 4.72125 6.835 4.0625 6.75 C3.381875 6.5025 2.70125 6.255 2 6 C0.75 2.9375 0.75 2.9375 0 0 Z " fill="#F5DD6C" transform="translate(150,246)"/>
<path d="M0 0 C0.66 0.99 1.32 1.98 2 3 C1.360625 3.9075 0.72125 4.815 0.0625 5.75 C-1.61428953 8.39221381 -2.53689998 9.9898499 -3 13 C-4.1484375 11.296875 -4.1484375 11.296875 -5 9 C-4.1015625 6.640625 -4.1015625 6.640625 -2.625 4.25 C-2.14289062 3.45078125 -1.66078125 2.6515625 -1.1640625 1.828125 C-0.77992187 1.22484375 -0.39578125 0.6215625 0 0 Z " fill="#98C8EE" transform="translate(64,299)"/>
<path d="M0 0 C0.66 0 1.32 0 2 0 C2 0.66 2 1.32 2 2 C2.66 2 3.32 2 4 2 C4.99 3.98 5.98 5.96 7 8 C7.66 8 8.32 8 9 8 C8.67 9.65 8.34 11.3 8 13 C4.48901975 8.98745115 2.23462006 4.79016959 0 0 Z " fill="#E96474" transform="translate(261,218)"/>
<path d="M0 0 C2.63978826 3.18595135 5.10498388 6.30970546 7 10 C6.67 10.66 6.34 11.32 6 12 C1.30021142 9.10782241 1.30021142 9.10782241 0.4453125 5.953125 C0.21402785 3.97669255 0.09937182 1.98743631 0 0 Z " fill="#F5E083" transform="translate(236,175)"/>
<path d="M0 0 C0.66 0 1.32 0 2 0 C1.42365861 4.75481646 -0.55068521 7.97048212 -3 12 C-3.33 12 -3.66 12 -4 12 C-4 10.02 -4 8.04 -4 6 C-3.34 6 -2.68 6 -2 6 C-2 5.34 -2 4.68 -2 4 C-1.34 4 -0.68 4 0 4 C0 2.68 0 1.36 0 0 Z " fill="#EA86A7" transform="translate(423,334)"/>
<path d="M0 0 C0.99 0.495 0.99 0.495 2 1 C2 1.66 2 2.32 2 3 C2.99 3.33 3.98 3.66 5 4 C5.73046875 5.84765625 5.73046875 5.84765625 6.1875 8.0625 C6.34605469 8.79597656 6.50460937 9.52945312 6.66796875 10.28515625 C6.83232422 11.13400391 6.83232422 11.13400391 7 12 C3.71534104 9.20803989 1.98678042 5.76803183 0 2 C0 1.34 0 0.68 0 0 Z " fill="#E96573" transform="translate(287,262)"/>
<path d="M0 0 C3.48331435 3.01887244 4.79157144 5.56909529 6 10 C5.01 10 4.02 10 3 10 C2.49596232 8.70990357 1.99690074 7.41786211 1.5 6.125 C1.2215625 5.40570313 0.943125 4.68640625 0.65625 3.9453125 C0 2 0 2 0 0 Z " fill="#FDC36B" transform="translate(252,204)"/>
<path d="M0 0 C2.43542455 1.90598443 3.00158196 3.00596275 3.8125 6.0625 C3.874375 7.031875 3.93625 8.00125 4 9 C3.34 9.66 2.68 10.32 2 11 C0.57741188 7.17679443 -0.24042276 4.08718695 0 0 Z " fill="#E98AAA" transform="translate(436,302)"/>
<path d="M0 0 C3 1 3 1 5 3 C5.625 5.625 5.625 5.625 6 8 C5.01 8.495 5.01 8.495 4 9 C0 2.25 0 2.25 0 0 Z " fill="#8FC2EE" transform="translate(86,355)"/>
<path d="M0 0 C1.98 0.495 1.98 0.495 4 1 C3.34 2.65 2.68 4.3 2 6 C1.01 6 0.02 6 -1 6 C-0.67 4.02 -0.34 2.04 0 0 Z " fill="#F5DC69" transform="translate(284,352)"/>
<path d="M0 0 C0 3.69418201 -1.28179295 5.77836178 -3 9 C-3.66 8.67 -4.32 8.34 -5 8 C-5 7.01 -5 6.02 -5 5 C-4.34 5 -3.68 5 -3 5 C-2.87625 4.360625 -2.7525 3.72125 -2.625 3.0625 C-2.41875 2.381875 -2.2125 1.70125 -2 1 C-1.34 0.67 -0.68 0.34 0 0 Z " fill="#96C6EB" transform="translate(159,355)"/>
<path d="M0 0 C1.32 0.33 2.64 0.66 4 1 C4 3.64 4 6.28 4 9 C0 4.5 0 4.5 0 0 Z " fill="#F4DE77" transform="translate(214,355)"/>
<path d="M0 0 C0.66 0 1.32 0 2 0 C5 4.38461538 5 4.38461538 5 7 C4.34 7 3.68 7 3 7 C2.67 7.66 2.34 8.32 2 9 C1.34 6.03 0.68 3.06 0 0 Z " fill="#FDCC84" transform="translate(309,304)"/>
<path d="M0 0 C0.99 0.495 0.99 0.495 2 1 C2 2.32 2 3.64 2 5 C2.66 5 3.32 5 4 5 C4.33 6.32 4.66 7.64 5 9 C3.68 9 2.36 9 1 9 C-0.06546953 5.8035914 -0.07427838 3.34252724 0 0 Z " fill="#70B2D1" transform="translate(166,275)"/>
<path d="M0 0 C0.99 0.33 1.98 0.66 3 1 C4.1875 4.0625 4.1875 4.0625 5 7 C4.34 7.66 3.68 8.32 3 9 C3 8.01 3 7.02 3 6 C2.34 6 1.68 6 1 6 C0.67 4.02 0.34 2.04 0 0 Z " fill="#EA7A9F" transform="translate(416,269)"/>
<path d="M0 0 C0.33 0 0.66 0 1 0 C1.36923077 5.53846154 1.36923077 5.53846154 -0.5 7.875 C-1.2425 8.431875 -1.2425 8.431875 -2 9 C-2.6875 7.3125 -2.6875 7.3125 -3 5 C-1.625 2.25 -1.625 2.25 0 0 Z " fill="#EE799F" transform="translate(268,166)"/>
<path d="M0 0 C0.66 0 1.32 0 2 0 C0.7508258 3.45925163 -0.67527795 6.14693203 -3 9 C-2.67 6.69 -2.34 4.38 -2 2 C-1.34 2 -0.68 2 0 2 C0 1.34 0 0.68 0 0 Z " fill="#F6E07C" transform="translate(295,337)"/>
<path d="M0 0 C0 3.58534593 -1.02362045 5.07495826 -3 8 C-3.33 8 -3.66 8 -4 8 C-3.67 5.69 -3.34 3.38 -3 1 C-2.01 0.67 -1.02 0.34 0 0 Z " fill="#90C3F0" transform="translate(170,336)"/>
<path d="M0 0 C0.99 0 1.98 0 3 0 C1.7508258 3.45925163 0.32472205 6.14693203 -2 9 C-2 7.35 -2 5.7 -2 4 C-1.34 4 -0.68 4 0 4 C0 2.68 0 1.36 0 0 Z " fill="#E783A4" transform="translate(433,316)"/>
<path d="M0 0 C1.32 0.33 2.64 0.66 4 1 C3.01 1.495 3.01 1.495 2 2 C1.690625 2.66 1.38125 3.32 1.0625 4 C0 6 0 6 -3 7 C-1.125 2.25 -1.125 2.25 0 0 Z " fill="#91C3EA" transform="translate(90,254)"/>
<path d="M0 0 C0.33 0.66 0.66 1.32 1 2 C1.66 2 2.32 2 3 2 C3.33 3.98 3.66 5.96 4 8 C3.01 8 2.02 8 1 8 C0.67 5.36 0.34 2.72 0 0 Z " fill="#F6DB6A" transform="translate(147,237)"/>
<path d="M0 0 C1.32 0.33 2.64 0.66 4 1 C3.67 2.32 3.34 3.64 3 5 C2.34 4.67 1.68 4.34 1 4 C0.01 4.33 -0.98 4.66 -2 5 C-1.34 3.35 -0.68 1.7 0 0 Z " fill="#ED719A" transform="translate(258,183)"/>
<path d="M0 0 C0.66 0 1.32 0 2 0 C2 0.99 2 1.98 2 3 C2.66 3 3.32 3 4 3 C4.33 4.98 4.66 6.96 5 9 C0.57142857 3.85714286 0.57142857 3.85714286 0 0 Z " fill="#F5E38B" transform="translate(191,317)"/>
<path d="M0 0 C0.99 0 1.98 0 3 0 C3.66 2.97 4.32 5.94 5 9 C0.57142857 3.85714286 0.57142857 3.85714286 0 0 Z " fill="#9BCCF0" transform="translate(61,312)"/>
<path d="M0 0 C2.50037734 2.17424117 3.43628586 3.73045798 4 7 C2.68 6.67 1.36 6.34 0 6 C0 4.02 0 2.04 0 0 Z " fill="#F6E086" transform="translate(226,158)"/>
</svg>
